<?xml version="1.0" standalone="no"?>
<!DOCTYPE svg PUBLIC "-//W3C//DTD SVG 1.1//EN" "http://www.w3.org/Graphics/SVG/1.1/DTD/svg11.dtd" >

<svg>
<metadata>
Created by webfont
</metadata>
<defs>

<font id="zcool-gdh" horiz-adv-x="1080" vert-adv-y="1080" >
  <font-face
    
    font-family="zcool-gdh"
    
    font-weight="400"
    
    font-stretch="normal"
    
    units-per-em="1000"
    
    ascent="860"
    
    descent="-141"
    
  />
    <missing-glyph />
    
    <glyph glyph-name="uni3002" unicode="&#x3002;" d="M425 165Q425 116 377 81Q353 64 323.50 53.50Q294 43 261 43Q227 43 198 53Q169 63 144 81Q97 115 97 165Q97 219 144 253Q195 290 261 290Q328 290 377 253Q425 218 425 165M186 165Q186 109 261 109Q337 109 337 165Q337 223 261 223Q186 223 186 165Z"  horiz-adv-x="1000" vert-adv-y="1000"  />

    
    <glyph glyph-name="uni4E00" unicode="&#x4E00;" d="M912 383L886 338L88 338L88 383L912 383Z"  horiz-adv-x="1000" vert-adv-y="1000"  />

    
    <glyph glyph-name="uni4E0D" unicode="&#x4E0D;" d="M495 620L439 528L553 528L553 52L434 52L434 521L231 186L94 186L358 620L83 620L83 668L904 668L879 620L495 620M721 481L916 186L785 186L590 481L721 481Z"  horiz-adv-x="1000" vert-adv-y="1000"  />

    
    <glyph glyph-name="uni4E3A" unicode="&#x4E3A;" d="M901 53L591 53L558 100L787 100L787 526L763 487L451 487L240 56L98 56L311 487L98 487L98 534L334 534L400 667L540 667L474 534L901 534L901 53M575 182L492 400L615 400L699 182L575 182M214 553L171 667L294 667L338 553L214 553Z"  horiz-adv-x="1000" vert-adv-y="1000"  />

    
    <glyph glyph-name="uni4E86" unicode="&#x4E86;" d="M591 439L591 55L296 55L268 99L470 99L470 492L471 492L642 619L105 619L105 666L894 666L591 439Z"  horiz-adv-x="1000" vert-adv-y="1000"  />

    
    <glyph glyph-name="uni4E8B" unicode="&#x4E8B;" d="M869 267L923 267L898 218L869 218L869 133L558 133L558 53L395 53L371 98L441 98L441 133L137 133L111 182L441 182L441 218L76 218L76 267L441 267L441 305L137 305L111 352L441 352L441 385L110 385L110 530L441 530L441 562L76 562L76 611L441 611L441 667L558 667L558 611L923 611L898 562L558 562L558 530L869 530L869 385L558 385L558 352L869 352L869 267M441 431L441 485L222 485L222 431L441 431M558 485L558 431L758 431L758 518L721 485L558 485M558 267L753 267L753 305L558 305L558 267M753 218L558 218L558 182L753 182L753 218Z"  horiz-adv-x="1000" vert-adv-y="1000"  />

    
    <glyph glyph-name="uni4ECE" unicode="&#x4ECE;" d="M780 61L670 382L588 62L456 62L476 142L366 142L296 340L225 62L92 62L245 659L377 659L302 365L415 365L484 171L608 659L741 659L675 403L791 403L908 61L780 61Z"  horiz-adv-x="1000" vert-adv-y="1000"  />

    
    <glyph glyph-name="uni4EEC" unicode="&#x4EEC;" d="M313 668L208 451L255 451L255 53L139 53L139 404L62 404L194 668L313 668M823 645L937 645L937 55L685 55L670 99L823 99L823 645M474 53L338 53L338 501L474 501L474 53M492 526L367 526L341 663L466 663L492 526M823 645L797 597L511 597L511 645L823 645Z"  horiz-adv-x="1000" vert-adv-y="1000"  />

    
    <glyph glyph-name="uni4F1A" unicode="&#x4F1A;" d="M488 674L925 507L925 437L488 598L74 434L74 502L488 674M909 316L876 272L388 272L255 91L725 91L620 214L769 214L914 46L86 46L251 272L93 272L93 316L909 316M734 419L255 419L255 463L756 463L734 419Z"  horiz-adv-x="1000" vert-adv-y="1000"  />

    
    <glyph glyph-name="uni4F60" unicode="&#x4F60;" d="M318 665L215 416L262 416L262 54L146 54L146 368L69 368L199 665L318 665M523 54L499 100L569 100L569 551L686 551L686 54L523 54M931 614L903 479L794 479L815 568L465 565L449 520L331 520L384 667L501 667L482 614L931 614M406 451L521 451L451 89L331 89L406 451M910 89L791 89L724 420L839 420L910 89Z"  horiz-adv-x="1000" vert-adv-y="1000"  />

    
    <glyph glyph-name="uni5206" unicode="&#x5206;" d="M84 366L862 366L862 53L514 53L488 100L746 100L746 319L344 319L216 53L93 53L227 319L84 319L84 366M805 405L643 667L763 667L926 405L805 405M193 409L73 409L234 667L354 667L193 409Z"  horiz-adv-x="1000" vert-adv-y="1000"  />

    
    <glyph glyph-name="uni53CB" unicode="&#x53CB;" d="M317 598L904 598L878 551L309 551L299 493L859 493L859 409L647 230L860 53L708 53L573 167L438 53L285 53L493 233L284 409L221 53L103 53L196 551L96 551L96 598L205 598L218 668L330 668L317 598M291 449L285 417L421 417L567 297L742 449L291 449Z"  horiz-adv-x="1000" vert-adv-y="1000"  />

    
    <glyph glyph-name="uni53D8" unicode="&#x53D8;" d="M602 185L900 62L719 62L504 147L276 61L100 61L403 190L147 304L313 304L505 228L739 310L739 316L145 316L145 364L860 364L860 277L602 185M873 566L676 566L676 372L562 372L562 566L431 566L431 372L325 372L325 566L100 566L100 613L443 613L443 659L557 659L557 613L900 613L873 566M119 376L175 546L296 546L240 376L119 376M830 546L887 376L766 376L709 546L830 546Z"  horiz-adv-x="1000" vert-adv-y="1000"  />

    
    <glyph glyph-name="uni548C" unicode="&#x548C;" d="M547 659L939 659L939 56L547 61L547 659M61 54L119 457L71 457L71 524L228 524L228 596L71 589L71 647L528 666L500 608L342 601L342 524L523 524L495 457L432 457L508 142L397 142L342 372L342 56L228 56L228 457L225 457L167 54L61 54M826 129L826 651L793 587L655 587L655 129L826 129Z"  horiz-adv-x="1000" vert-adv-y="1000"  />

    
    <glyph glyph-name="uni56E0" unicode="&#x56E0;" d="M921 53L79 53L79 668L809 668L785 621L191 621L191 99L809 99L809 668L921 668L921 53M556 472L790 472L766 425L540 425L371 123L241 123L411 425L223 425L223 472L426 472L426 597L556 597L556 472M662 348L780 127L638 127L522 348L662 348Z"  horiz-adv-x="1000" vert-adv-y="1000"  />

    
    <glyph glyph-name="uni5728" unicode="&#x5728;" d="M905 561L352 561L257 393L311 393L311 61L196 61L196 306L70 306L213 561L108 561L108 608L240 608L269 660L408 660L378 608L930 608L905 561M846 373L685 373L685 108L927 108L902 61L351 61L351 108L570 108L570 373L365 373L365 420L570 420L570 512L685 512L685 420L871 420L846 373Z"  horiz-adv-x="1000" vert-adv-y="1000"  />

    
    <glyph glyph-name="uni59CB" unicode="&#x59CB;" d="M300 197L422 123L422 53L243 162L63 53L63 123L185 197L85 258L120 548L63 548L63 597L126 597L135 667L251 667L242 597L465 597L440 548L400 548L400 258L300 197M452 349L907 349L907 53L452 53L452 349M771 388L423 388L568 640L693 640L577 436L785 436L730 533L858 533L936 388L811 388L792 423L771 388M564 98L796 98L796 337L759 304L564 304L564 98M243 232L284 258L284 548L236 548L201 258L243 232Z"  horiz-adv-x="1000" vert-adv-y="1000"  />

    
    <glyph glyph-name="uni5B8C" unicode="&#x5B8C;" d="M258 436L258 480L741 480L711 436L258 436M658 314L341 314L341 263L251 57L118 57L208 281L208 314L100 314L100 358L899 358L869 314L793 314L793 103L881 103L857 57L658 57L658 314M769 470L769 613L744 580L230 580L230 470L100 470L100 615L432 615L432 663L560 663L560 615L899 615L899 470L769 470Z"  horiz-adv-x="1000" vert-adv-y="1000"  />

    
    <glyph glyph-name="uni5B9E" unicode="&#x5B9E;" d="M904 615L904 523L792 523L792 611L769 567L209 567L209 523L95 523L95 615L444 615L444 662L558 662L558 615L904 615M647 522L499 355L909 355L884 311L460 311L237 58L91 58L310 311L90 311L90 355L348 355L492 522L647 522M224 548L376 548L424 460L275 460L323 375L171 375L123 464L271 464L224 548M718 284L890 58L744 58L563 284L718 284Z"  horiz-adv-x="1000" vert-adv-y="1000"  />

    
    <glyph glyph-name="uni5C31" unicode="&#x5C31;" d="M375 53L226 53L196 96L261 96L261 340L91 340L91 536L441 536L411 500L205 500L205 376L441 376L441 536L555 536L555 340L375 340L375 53M719 503L719 210L671 53L555 53L605 210L605 503L575 503L575 546L605 546L605 667L719 667L719 546L784 546L765 620L877 620L898 546L939 546L909 503L719 503M853 97L939 97L909 53L739 53L739 483L853 483L853 97M555 576L61 576L61 620L261 620L261 668L375 668L375 620L585 620L555 576M215 290L162 53L61 53L115 290L215 290M502 290L555 53L455 53L401 290L502 290Z"  horiz-adv-x="1000" vert-adv-y="1000"  />

    
    <glyph glyph-name="uni5DF2" unicode="&#x5DF2;" d="M753 403L753 668L866 668L866 355L221 355L221 100L902 100L876 53L109 53L109 506L221 506L221 403L753 403M727 621L98 621L98 668L753 668L727 621Z"  horiz-adv-x="1000" vert-adv-y="1000"  />

    
    <glyph glyph-name="uni5F00" unicode="&#x5F00;" d="M735 618L735 391L907 391L884 344L735 344L735 54L616 54L616 344L386 344L386 298L278 54L148 54L271 312L271 344L92 344L92 391L271 391L271 618L92 618L92 665L271 665L271 666L735 666L735 665L907 665L884 618L735 618M616 618L386 618L386 391L616 391L616 618Z"  horiz-adv-x="1000" vert-adv-y="1000"  />

    
    <glyph glyph-name="uni5F97" unicode="&#x5F97;" d="M771 619L488 619L488 567L797 567L797 667L911 667L911 420L374 420L374 667L797 667L771 619M920 245L878 245L878 54L611 54L586 99L761 99L761 245L305 245L305 292L761 292L761 345L359 345L359 392L941 392L915 345L878 345L878 292L947 292L920 245M197 667L332 667L204 489L322 489L220 332L262 332L262 54L153 54L153 282L52 282L176 460L57 460L197 667M488 468L797 468L797 519L488 519L488 468M425 108L363 210L486 210L550 108L425 108Z"  horiz-adv-x="1000" vert-adv-y="1000"  />

    
    <glyph glyph-name="uni6210" unicode="&#x6210;" d="M897 564L707 564L775 360L887 417L887 352L793 304L876 53L757 53L691 252L596 204L596 269L672 308L588 564L265 564L265 469L423 469L402 425L265 425L265 268L222 53L102 53L146 268L146 608L574 608L554 668L673 668L693 608L775 608L759 663L867 663L897 564M542 53L371 53L371 97L423 97L423 469L542 469L542 53Z"  horiz-adv-x="1000" vert-adv-y="1000"  />

    
    <glyph glyph-name="uni6211" unicode="&#x6211;" d="M813 319L922 355L922 262L846 236L918 54L782 54L731 197L477 111L477 209L700 282L636 458L347 458L347 349L479 376L479 282L347 255L347 54L129 54L104 100L229 100L229 230L69 197L69 294L229 326L229 458L69 458L69 506L229 506L229 610L89 604L89 651L491 666L465 619L347 614L347 506L619 506L561 666L676 666L740 506L931 506L905 458L758 458L813 319M781 540L759 657L876 657L899 540L781 540Z"  horiz-adv-x="1000" vert-adv-y="1000"  />

    
    <glyph glyph-name="uni6539" unicode="&#x6539;" d="M936 53L815 53L710 183L617 53L490 53L640 270L486 461L611 461L697 353L772 462L772 561L484 561L538 668L656 668L628 607L936 607L914 561L889 561L889 434L768 264L936 53M449 639L449 362L183 362L183 101L471 101L443 53L64 53L64 410L332 410L332 639L449 639M307 591L64 591L64 639L331 639L307 591Z"  horiz-adv-x="1000" vert-adv-y="1000"  />

    
    <glyph glyph-name="uni662F" unicode="&#x662F;" d="M861 408L155 408L155 659L861 659L861 408M906 106L871 61L305 61L263 113L236 61L113 61L218 269L334 269L308 215L396 106L457 106L457 315L94 315L94 365L888 365L864 315L573 315L573 254L841 254L817 205L573 205L573 106L906 106M267 613L267 558L751 558L751 647L714 613L267 613M751 454L751 509L267 509L267 454L751 454Z"  horiz-adv-x="1000" vert-adv-y="1000"  />

    
    <glyph glyph-name="uni670B" unicode="&#x670B;" d="M534 668L939 668L939 53L799 53L781 96L825 96L825 250L648 250L648 53L515 53L515 96L534 96L534 668M81 668L485 668L485 53L346 53L328 96L371 96L371 250L195 250L195 53L61 53L61 96L81 96L81 668M825 294L825 445L648 445L648 294L825 294M371 294L371 445L195 445L195 294L371 294M648 624L648 489L825 489L825 624L648 624M195 624L195 489L371 489L371 624L195 624Z"  horiz-adv-x="1000" vert-adv-y="1000"  />

    
    <glyph glyph-name="uni73B0" unicode="&#x73B0;" d="M938 96L910 52L639 52L639 256L484 52L350 52L606 381L606 584L720 584L720 363L694 329L748 329L748 96L938 96M799 290L799 663L765 624L521 624L521 290L412 290L412 668L908 668L908 290L799 290M379 114L61 69L61 113L166 127L166 367L61 367L61 411L166 411L166 604L61 604L61 648L377 648L349 604L280 604L280 411L377 411L349 367L280 367L280 143L379 157L379 114Z"  horiz-adv-x="1000" vert-adv-y="1000"  />

    
    <glyph glyph-name="uni7684" unicode="&#x7684;" d="M344 551L179 551L179 380L370 380L370 599L484 599L484 53L65 53L65 598L84 598L84 599L196 599L222 668L343 668L318 599L370 599L344 551M629 53L604 99L818 99L818 595L935 595L935 53L629 53M179 100L370 100L370 332L179 332L179 100M791 548L646 548L612 450L491 450L567 668L688 668L662 595L818 595L791 548M617 194L491 405L614 405L741 194L617 194Z"  horiz-adv-x="1000" vert-adv-y="1000"  />

    
    <glyph glyph-name="uni7ECF" unicode="&#x7ECF;" d="M83 193L216 399L83 399L256 668L375 668L241 461L375 461L232 240L368 240L342 193L83 193M717 301L717 100L917 100L894 53L418 53L418 100L606 100L606 301L418 301L418 348L917 348L894 301L717 301M787 581L787 620L445 620L445 667L890 667L890 544L771 485L906 376L780 376L691 446L550 376L407 376L787 581M377 70L118 53L118 100L403 118L377 70Z"  horiz-adv-x="1000" vert-adv-y="1000"  />

    
    <glyph glyph-name="uni8BB0" unicode="&#x8BB0;" d="M325 541L202 541L132 668L257 668L325 541M281 169L355 208L332 138L167 52L167 441L109 441L109 485L281 485L281 169M394 608L394 654L848 654L848 383L506 383L506 118L890 118L867 75L394 75L394 427L736 427L736 608L394 608Z"  horiz-adv-x="1000" vert-adv-y="1000"  />

    
    <glyph glyph-name="uni8D77" unicode="&#x8D77;" d="M353 617L476 617L450 570L353 570L353 441L493 441L467 394L353 394L353 272L481 272L455 225L353 225L353 111L902 100L876 53L196 67L196 53L103 53L111 272L203 272L198 115L239 114L239 394L98 394L98 441L239 441L239 570L115 570L115 617L239 617L239 668L353 668L353 617M866 289L866 142L515 142L515 426L752 426L752 641L866 641L866 379L629 379L629 190L752 190L752 289L866 289M726 593L515 593L515 641L752 641L726 593Z"  horiz-adv-x="1000" vert-adv-y="1000"  />

    
    <glyph glyph-name="uni8FD9" unicode="&#x8FD9;" d="M259 104L908 104L889 60L294 60L255 99L224 60L92 60L92 104L145 104L145 423L92 423L92 469L259 469L259 104M106 660L227 660L285 527L159 527L106 660M844 547L654 350L865 144L718 144L583 276L455 144L308 144L507 350L351 503L498 503L579 424L698 547L319 547L319 595L530 595L530 642L652 642L652 595L902 595L883 547L844 547Z"  horiz-adv-x="1000" vert-adv-y="1000"  />

    
    <glyph glyph-name="uni90A3" unicode="&#x90A3;" d="M384 507L288 507L288 427L379 427L353 379L288 379L288 302L411 302L384 254L281 254L248 53L152 53L184 254L92 254L92 302L191 302L191 379L124 379L124 427L191 427L191 507L106 507L106 554L191 554L191 621L86 621L86 668L557 668L527 621L515 621L515 71L371 71L350 115L413 115L413 621L288 621L288 554L411 554L384 507M674 55L568 55L568 668L914 668L830 423L905 423L905 71L709 164L709 217L802 173L802 377L700 377L786 623L674 623L674 55Z"  horiz-adv-x="1000" vert-adv-y="1000"  />

    
    <glyph glyph-name="uni949F" unicode="&#x949F;" d="M597 210L378 210L378 545L597 545L597 668L721 668L721 545L939 545L939 210L721 210L721 53L597 53L597 210M126 279L61 279L61 325L126 325L126 465L61 465L61 510L350 510L326 465L249 465L249 325L350 325L326 279L249 279L249 147L347 177L328 116L126 53L126 279M721 263L809 263L809 531L771 492L721 492L721 263M332 562L61 562L111 668L241 668L213 608L355 608L332 562M597 263L597 492L510 492L510 263L597 263Z"  horiz-adv-x="1000" vert-adv-y="1000"  />

    
    <glyph glyph-name="uniFF0C" unicode="&#xFF0C;" d="M411 155L342 155L440 270L316 270L316 420L516 420L516 277L411 155Z"  horiz-adv-x="1000" vert-adv-y="1000"  />

    

  </font>
</defs>
</svg>
